<?xml version="1.0" standalone="no"?>
<!DOCTYPE svg PUBLIC "-//W3C//DTD SVG 20010904//EN"
 "http://www.w3.org/TR/2001/REC-SVG-20010904/DTD/svg10.dtd">
<svg version="1.0" xmlns="http://www.w3.org/2000/svg"
 width="500.000000pt" height="500.000000pt" viewBox="0 0 500.000000 500.000000"
 preserveAspectRatio="xMidYMid meet">
<metadata>
Created by potrace 1.14, written by Peter Selinger 2001-2017
</metadata>
<g transform="translate(0.000000,500.000000) scale(0.100000,-0.100000)"
fill="#000000" stroke="none">
<path d="M2210 4845 c-1017 -126 -1838 -896 -2030 -1903 -45 -238 -51 -556
-15 -791 61 -394 213 -754 458 -1080 82 -109 297 -330 405 -415 529 -418 1200
-591 1862 -480 362 61 718 212 1008 430 l73 55 -6 77 c-9 99 15 215 59 297
l33 60 -1246 -3 c-869 -2 -1262 1 -1299 9 -120 25 -258 123 -308 222 -82 158
-70 350 32 488 85 116 214 179 367 179 81 0 88 2 82 18 -5 9 -15 49 -23 87
-62 291 204 565 508 524 163 -22 322 -159 361 -309 7 -28 16 -50 21 -50 4 0 8
4 8 9 0 5 36 48 81 95 63 67 97 94 153 121 91 46 213 69 316 60 164 -13 374
-82 420 -137 l25 -30 84 16 c93 17 189 58 261 111 l48 35 16 -24 c15 -24 15
-26 -22 -56 -71 -59 -247 -130 -324 -130 -33 0 -33 0 -9 -48 18 -36 56 -163
49 -166 -94 -43 -154 -81 -209 -136 -108 -106 -156 -229 -146 -372 3 -42 10
-84 16 -95 7 -13 9 7 4 77 -10 163 28 271 131 374 64 64 203 146 248 146 91
-1 278 -69 278 -101 0 -15 7 -19 31 -19 26 0 44 -13 98 -68 39 -39 81 -95 101
-134 l35 -68 5 488 5 487 25 45 c31 55 104 106 166 116 92 13 188 -39 237
-130 22 -40 22 -50 26 -536 l4 -495 27 85 c16 48 24 87 19 89 -6 1 -4 8 4 15
13 10 26 59 44 158 5 26 3 28 -28 29 l-34 2 35 6 c35 6 47 25 49 79 1 19 -4
22 -41 24 l-43 1 45 6 c45 6 45 6 48 49 l3 42 -48 2 -48 1 50 6 50 6 3 92 3
92 -53 4 -53 3 53 2 52 2 0 105 0 105 -52 2 -53 2 49 3 49 4 -7 72 c-8 90 -48
290 -76 380 l-21 67 -184 0 c-178 0 -185 1 -185 20 0 19 7 20 176 20 l176 0
-7 28 c-3 15 -24 70 -46 122 -263 622 -787 1107 -1424 1319 -177 58 -300 86
-473 106 -152 18 -417 18 -562 0z m-291 -654 c22 -106 78 -144 231 -158 l75
-7 -70 -7 c-182 -17 -229 -60 -252 -229 l-7 -55 -8 70 c-10 80 -38 146 -73
169 -34 22 -129 46 -190 47 -48 1 -48 2 20 10 109 14 146 28 186 67 37 37 58
98 60 175 l1 32 8 -30 c5 -16 13 -54 19 -84z m2146 -707 c8 -22 28 -52 43 -67
30 -29 120 -56 192 -58 45 -1 44 -2 -15 -10 -182 -27 -226 -69 -242 -231 l-7
-73 -7 61 c-19 156 -52 202 -166 228 -40 9 -87 17 -105 17 -18 1 -2 5 36 10
165 19 219 73 234 233 l6 71 8 -70 c4 -38 15 -88 23 -111z m-3370 -631 c30
-78 84 -107 225 -120 l75 -7 -84 -8 c-93 -8 -176 -41 -200 -80 -19 -31 -40
-114 -42 -163 -1 -31 -4 -23 -16 40 -16 88 -34 128 -74 157 -32 24 -124 47
-194 49 -45 1 -43 2 25 10 94 11 161 33 188 62 29 30 50 94 59 175 l7 67 7
-69 c4 -39 15 -89 24 -113z m4118 -260 c-13 -2 -33 -2 -45 0 -13 2 -3 4 22 4
25 0 35 -2 23 -4z m-4383 -693 c0 -18 -7 -20 -65 -20 -58 0 -65 2 -65 20 0 18
7 20 65 20 58 0 65 -2 65 -20z m730 -5 c0 -25 -1 -25 -88 -25 -49 0 -191 3
-315 7 -211 6 -227 7 -227 25 0 17 16 18 315 18 l315 0 0 -25z m2550 -1185 c0
-17 -7 -20 -50 -20 -43 0 -50 3 -50 20 0 17 7 20 50 20 43 0 50 -3 50 -20z
m-2320 -70 c0 -19 -7 -20 -115 -20 -108 0 -115 1 -115 20 0 19 7 20 115 20
108 0 115 -1 115 -20z"/>
<path d="M4453 2703 c-12 -2 -34 -18 -48 -34 l-25 -31 0 -758 0 -759 -45 -20
c-63 -28 -140 -104 -172 -170 -24 -49 -27 -68 -27 -146 0 -70 5 -101 22 -138
28 -62 104 -143 167 -175 44 -24 61 -27 150 -27 87 0 107 3 150 25 175 88 247
295 163 469 -29 60 -106 137 -163 161 l-45 19 0 751 c0 833 3 797 -65 826 -19
8 -36 13 -37 13 -2 -1 -13 -4 -25 -6z m315 -1966 c-14 -120 -120 -227 -242
-243 -65 -9 -59 10 8 25 101 22 185 106 207 207 15 64 34 73 27 11z"/>
<path d="M1700 1981 c0 -5 20 -21 45 -36 25 -14 72 -54 106 -88 134 -138 161
-275 91 -464 -2 -7 0 -13 5 -13 22 0 48 106 48 195 0 104 -21 162 -94 253 -52
66 -201 179 -201 153z"/>
</g>
</svg>
